REM DIRINDEX 1\2,1\3,1\4,1\5
REM DIRNAME folder01,folder02,folder03,folder04,folder05
TITLE ""
FILE "162.mp3" MP3
  TRACK 01 AUDIO
    TITLE "0:"
    INDEX 01 00:00:00
  TRACK 02 AUDIO
    TITLE "2:cjc046_4729"
    INDEX 01 00:00:13
  TRACK 03 AUDIO
    TITLE "0:"
    INDEX 01 00:01:15
  TRACK 04 AUDIO
    TITLE "3:cjc046_4730"
    INDEX 01 00:01:36
  TRACK 05 AUDIO
    TITLE "0:"
    INDEX 01 00:02:57
  TRACK 06 AUDIO
    TITLE "4:cjc046_4731"
    INDEX 01 00:02:71
  TRACK 07 AUDIO
    TITLE "0:"
    INDEX 01 00:03:72
  TRACK 08 AUDIO
    TITLE "2:cjc046_4732"
    INDEX 01 00:05:07
  TRACK 09 AUDIO
    TITLE "0:"
    INDEX 01 00:06:22
  TRACK 10 AUDIO
    TITLE "3:cjc046_4733"
    INDEX 01 00:06:43
  TRACK 11 AUDIO
    TITLE "0:"
    INDEX 01 00:07:49
  TRACK 12 AUDIO
    TITLE "4:cjc046_4734"
    INDEX 01 00:07:62
  TRACK 13 AUDIO
    TITLE "0:"
    INDEX 01 00:09:00
  TRACK 14 AUDIO
    TITLE "2:cjc046_4735"
    INDEX 01 00:10:12
  TRACK 15 AUDIO
    TITLE "0:"
    INDEX 01 00:11:25
  TRACK 16 AUDIO
    TITLE "3:cjc046_4736"
    INDEX 01 00:11:42
  TRACK 17 AUDIO
    TITLE "0:"
    INDEX 01 00:12:48
  TRACK 18 AUDIO
    TITLE "4:cjc046_4737"
    INDEX 01 00:12:60
  TRACK 19 AUDIO
    TITLE "0:"
    INDEX 01 00:13:73
  TRACK 20 AUDIO
    TITLE "2:cjc046_4738"
    INDEX 01 00:15:07
  TRACK 21 AUDIO
    TITLE "0:"
    INDEX 01 00:16:18
  TRACK 22 AUDIO
    TITLE "3:cjc046_4739"
    INDEX 01 00:16:42
  TRACK 23 AUDIO
    TITLE "0:"
    INDEX 01 00:17:67
  TRACK 24 AUDIO
    TITLE "4:cjc046_4740"
    INDEX 01 00:18:09
  TRACK 25 AUDIO
    TITLE "0:"
    INDEX 01 00:19:22
  TRACK 26 AUDIO
    TITLE "2:cjc046_4741"
    INDEX 01 00:20:32
  TRACK 27 AUDIO
    TITLE "0:"
    INDEX 01 00:21:43
  TRACK 28 AUDIO
    TITLE "3:cjc046_4742"
    INDEX 01 00:21:62
  TRACK 29 AUDIO
    TITLE "0:"
    INDEX 01 00:23:42
  TRACK 30 AUDIO
    TITLE "4:cjc046_4743"
    INDEX 01 00:23:51
  TRACK 31 AUDIO
    TITLE "0:"
    INDEX 01 00:24:63
  TRACK 32 AUDIO
    TITLE "2:cjc046_4744"
    INDEX 01 00:25:74
  TRACK 33 AUDIO
    TITLE "0:"
    INDEX 01 00:27:18
  TRACK 34 AUDIO
    TITLE "3:cjc046_4745"
    INDEX 01 00:27:39
  TRACK 35 AUDIO
    TITLE "0:"
    INDEX 01 00:28:72
  TRACK 36 AUDIO
    TITLE "4:cjc046_4746"
    INDEX 01 00:29:01
  TRACK 37 AUDIO
    TITLE "0:"
    INDEX 01 00:30:22
  TRACK 38 AUDIO
    TITLE "2:cjc046_4747"
    INDEX 01 00:31:29
  TRACK 39 AUDIO
    TITLE "0:"
    INDEX 01 00:32:33
  TRACK 40 AUDIO
    TITLE "3:cjc046_4748"
    INDEX 01 00:32:50
  TRACK 41 AUDIO
    TITLE "0:"
    INDEX 01 00:33:60
  TRACK 42 AUDIO
    TITLE "4:cjc046_4749"
    INDEX 01 00:34:06
  TRACK 43 AUDIO
    TITLE "0:"
    INDEX 01 00:35:10
  TRACK 44 AUDIO
    TITLE "2:cjc046_4750"
    INDEX 01 00:36:17
  TRACK 45 AUDIO
    TITLE "0:"
    INDEX 01 00:37:18
  TRACK 46 AUDIO
    TITLE "3:cjc046_4751"
    INDEX 01 00:37:40
  TRACK 47 AUDIO
    TITLE "0:"
    INDEX 01 00:38:67
  TRACK 48 AUDIO
    TITLE "4:cjc046_4752"
    INDEX 01 00:39:11
  TRACK 49 AUDIO
    TITLE "0:"
    INDEX 01 00:40:15
  TRACK 50 AUDIO
    TITLE "2:cjc046_4753"
    INDEX 01 00:41:24
  TRACK 51 AUDIO
    TITLE "0:"
    INDEX 01 00:42:39
  TRACK 52 AUDIO
    TITLE "3:cjc046_4754"
    INDEX 01 00:42:55
  TRACK 53 AUDIO
    TITLE "0:"
    INDEX 01 00:44:18
  TRACK 54 AUDIO
    TITLE "4:cjc046_4755"
    INDEX 01 00:44:30
  TRACK 55 AUDIO
    TITLE "0:"
    INDEX 01 00:45:45
  TRACK 56 AUDIO
    TITLE "2:cjc046_4756"
    INDEX 01 00:46:54
  TRACK 57 AUDIO
    TITLE "0:"
    INDEX 01 00:47:66
  TRACK 58 AUDIO
    TITLE "3:cjc046_4757"
    INDEX 01 00:48:12
  TRACK 59 AUDIO
    TITLE "0:"
    INDEX 01 00:50:21
  TRACK 60 AUDIO
    TITLE "4:cjc046_4758"
    INDEX 01 00:50:31
  TRACK 61 AUDIO
    TITLE "0:"
    INDEX 01 00:51:42
  TRACK 62 AUDIO
    TITLE "2:cjc046_4759"
    INDEX 01 00:52:53
  TRACK 63 AUDIO
    TITLE "0:"
    INDEX 01 00:53:51
  TRACK 64 AUDIO
    TITLE "3:cjc046_4760"
    INDEX 01 00:53:72
  TRACK 65 AUDIO
    TITLE "0:"
    INDEX 01 00:54:66
  TRACK 66 AUDIO
    TITLE "4:cjc046_4761"
    INDEX 01 00:55:10
  TRACK 67 AUDIO
    TITLE "0:"
    INDEX 01 00:56:10
  TRACK 68 AUDIO
    TITLE "2:cjc046_4762"
    INDEX 01 00:57:19
  TRACK 69 AUDIO
    TITLE "0:"
    INDEX 01 00:58:24
  TRACK 70 AUDIO
    TITLE "3:cjc046_4763"
    INDEX 01 00:58:44
  TRACK 71 AUDIO
    TITLE "0:"
    INDEX 01 00:59:36
  TRACK 72 AUDIO
    TITLE "4:cjc046_4764"
    INDEX 01 00:59:49
  TRACK 73 AUDIO
    TITLE "0:"
    INDEX 01 01:00:55
  TRACK 74 AUDIO
    TITLE "2:cjc046_4765"
    INDEX 01 01:01:64
  TRACK 75 AUDIO
    TITLE "0:"
    INDEX 01 01:02:67
  TRACK 76 AUDIO
    TITLE "3:cjc046_4766"
    INDEX 01 01:03:10
  TRACK 77 AUDIO
    TITLE "0:"
    INDEX 01 01:04:27
  TRACK 78 AUDIO
    TITLE "4:cjc046_4767"
    INDEX 01 01:04:35
  TRACK 79 AUDIO
    TITLE "0:"
    INDEX 01 01:05:36
  TRACK 80 AUDIO
    TITLE "2:cjc046_4768"
    INDEX 01 01:06:45
  TRACK 81 AUDIO
    TITLE "0:"
    INDEX 01 01:07:57
  TRACK 82 AUDIO
    TITLE "3:cjc046_4769"
    INDEX 01 01:08:01
  TRACK 83 AUDIO
    TITLE "0:"
    INDEX 01 01:09:42
  TRACK 84 AUDIO
    TITLE "4:cjc046_4770"
    INDEX 01 01:09:59
  TRACK 85 AUDIO
    TITLE "0:"
    INDEX 01 01:10:73
  TRACK 86 AUDIO
    TITLE "2:cjc046_4771"
    INDEX 01 01:12:03
  TRACK 87 AUDIO
    TITLE "0:"
    INDEX 01 01:13:16
  TRACK 88 AUDIO
    TITLE "3:cjc046_4772"
    INDEX 01 01:13:36
  TRACK 89 AUDIO
    TITLE "0:"
    INDEX 01 01:14:57
  TRACK 90 AUDIO
    TITLE "4:cjc046_4773"
    INDEX 01 01:14:70
  TRACK 91 AUDIO
    TITLE "0:"
    INDEX 01 01:16:09
  TRACK 92 AUDIO
    TITLE "2:cjc046_4774"
    INDEX 01 01:17:14
  TRACK 93 AUDIO
    TITLE "0:"
    INDEX 01 01:18:15
  TRACK 94 AUDIO
    TITLE "3:cjc046_4775"
    INDEX 01 01:18:35
  TRACK 95 AUDIO
    TITLE "0:"
    INDEX 01 01:19:27
  TRACK 96 AUDIO
    TITLE "4:cjc046_4776"
    INDEX 01 01:19:44
  TRACK 97 AUDIO
    TITLE "0:"
    INDEX 01 01:20:48
